<?xml version="1.0" standalone="no"?>
<!DOCTYPE svg PUBLIC "-//W3C//DTD SVG 20010904//EN"
 "http://www.w3.org/TR/2001/REC-SVG-20010904/DTD/svg10.dtd">
<svg version="1.0" xmlns="http://www.w3.org/2000/svg"
 width="959.000000pt" height="960.000000pt" viewBox="0 0 959.000000 960.000000"
 preserveAspectRatio="xMidYMid meet">
<metadata>
Created by potrace 1.16, written by Peter Selinger 2001-2019
</metadata>
<g transform="translate(0.000000,960.000000) scale(0.100000,-0.100000)"
fill="#000000" stroke="none">
<path d="M4194 9312 c-35 -8 -124 -61 -124 -75 0 -5 -6 -14 -13 -22 -7 -7 -19
-38 -27 -69 -11 -47 -11 -68 0 -124 15 -79 33 -116 77 -156 84 -76 229 -75
312 3 56 53 71 91 70 180 0 112 -48 211 -118 244 -41 19 -131 29 -177 19z
m120 -97 c53 -25 71 -67 71 -166 0 -85 0 -86 -35 -117 -62 -58 -138 -49 -191
21 -20 26 -25 46 -27 114 -4 72 -1 86 18 113 36 51 102 64 164 35z"/>
<path d="M5647 9197 c-22 -74 -41 -141 -61 -222 -45 -178 -45 -195 -2 -195 13
0 31 -3 40 -6 15 -6 16 -3 47 118 7 26 19 43 38 53 28 14 28 14 45 -25 25 -63
44 -112 58 -155 7 -22 13 -41 13 -42 2 -6 119 -32 123 -28 3 2 1 10 -5 17 -5
7 -16 33 -23 58 -7 25 -16 50 -20 55 -3 6 -16 37 -29 70 -12 33 -29 72 -37 87
-18 34 -19 34 16 48 17 7 30 16 30 20 0 4 8 10 18 14 9 3 40 19 67 36 28 16
60 34 73 40 28 12 20 30 -12 30 -13 0 -37 5 -53 11 -29 9 -39 5 -144 -60 -62
-39 -115 -69 -117 -66 -2 2 3 25 11 52 8 26 17 59 20 73 2 14 8 32 11 42 6 12
0 18 -26 23 -18 3 -40 8 -48 11 -11 3 -20 -13 -33 -59z"/>
<path d="M3403 9105 c-35 -15 -35 -23 -3 -100 7 -16 16 -39 20 -50 31 -82 44
-114 57 -138 17 -32 8 -51 -11 -24 -7 9 -18 17 -24 17 -6 0 -12 3 -14 8 -1 4
-25 25 -53 47 -27 22 -51 43 -53 47 -2 5 -10 8 -17 8 -7 0 -15 4 -17 9 -1 5
-25 26 -52 46 l-49 37 -46 -14 c-39 -12 -46 -18 -43 -39 1 -13 8 -37 16 -54 8
-16 26 -61 41 -100 15 -38 33 -83 40 -100 39 -92 45 -107 45 -118 0 -7 9 -23
19 -36 l18 -24 34 19 c19 10 36 20 38 21 2 2 -11 38 -29 80 -18 43 -36 87 -40
98 -4 11 -18 44 -30 73 -24 60 -23 70 6 44 10 -10 35 -29 54 -42 34 -24 46
-33 100 -80 14 -12 44 -36 68 -53 23 -17 42 -34 42 -39 0 -13 26 -9 67 9 21
10 40 19 42 20 4 3 -12 45 -68 173 -6 14 -20 50 -31 80 -11 30 -25 64 -29 75
-5 11 -17 41 -28 67 -20 52 -23 54 -70 33z"/>
<path d="M6487 8828 c-122 -249 -139 -288 -134 -301 6 -17 87 -49 87 -35 0 11
104 233 160 340 39 75 38 92 -4 112 -19 9 -36 16 -39 16 -3 0 -34 -60 -70
-132z"/>
<path d="M2558 8687 c-21 -12 -38 -27 -38 -33 0 -6 26 -51 58 -100 32 -49 81
-123 108 -164 27 -41 52 -83 56 -92 4 -10 12 -18 18 -18 5 0 10 -7 10 -15 0
-8 2 -15 5 -15 13 0 80 53 77 62 -3 10 -113 182 -161 251 -14 21 -35 53 -46
71 -11 19 -27 43 -35 54 l-15 21 -37 -22z"/>
<path d="M7098 8597 c-18 -23 -46 -61 -62 -84 -16 -24 -31 -43 -35 -43 -3 0
-22 -25 -40 -55 -19 -30 -39 -55 -43 -55 -4 0 -8 -4 -8 -10 0 -5 -8 -19 -17
-29 -35 -38 -43 -50 -43 -64 0 -13 147 -128 197 -154 48 -25 87 -25 141 -2 29
13 52 26 52 31 0 4 5 8 10 8 12 0 37 24 71 70 68 93 79 181 30 246 -16 21 -42
49 -57 61 -16 12 -59 44 -96 72 l-66 50 -34 -42z m124 -127 c63 -42 73 -92 36
-168 -13 -24 -28 -47 -35 -49 -7 -3 -13 -11 -13 -18 0 -7 -20 -23 -46 -35 -56
-27 -90 -22 -147 22 -23 17 -44 33 -46 34 -5 4 158 226 177 241 8 7 20 9 26 5
6 -4 28 -18 48 -32z"/>
<path d="M2015 8256 c-64 -24 -113 -69 -141 -130 -30 -66 -28 -106 6 -179 22
-45 82 -117 99 -117 6 0 11 -4 11 -10 0 -5 5 -10 12 -10 6 0 20 -8 31 -17 28
-26 150 -25 197 2 43 25 60 40 60 54 0 6 4 11 10 11 13 0 50 88 50 121 0 16
-10 51 -22 78 l-21 50 -33 -33 c-31 -31 -33 -35 -27 -89 6 -56 5 -58 -31 -92
-60 -57 -122 -44 -203 43 -72 76 -78 163 -15 213 22 17 36 20 79 16 44 -5 56
-2 78 17 35 30 29 56 -15 72 -43 15 -85 15 -125 0z"/>
<path d="M7775 7952 c-62 -36 -70 -49 -69 -110 0 -55 6 -69 75 -204 14 -28 11
-49 -13 -69 -25 -23 -22 -23 -58 -4 -64 33 -103 127 -67 164 10 11 10 14 0 18
-7 3 -13 9 -13 14 0 12 -37 49 -50 49 -5 0 -10 -7 -10 -15 0 -8 -4 -15 -9 -15
-4 0 -14 -20 -21 -44 -10 -35 -10 -52 0 -83 22 -68 79 -137 137 -167 41 -20
116 -21 133 -1 7 8 18 15 24 15 6 0 20 13 30 27 32 43 25 105 -23 199 -46 92
-51 126 -20 148 19 13 25 13 55 -2 18 -9 34 -22 34 -28 0 -7 7 -15 16 -18 12
-5 15 -19 12 -64 -2 -51 1 -63 23 -89 25 -29 25 -29 40 -9 33 44 40 88 24 144
-9 29 -20 52 -25 52 -6 0 -10 4 -10 10 0 5 -13 22 -28 37 -63 63 -129 79 -187
45z"/>
<path d="M4565 7704 c-303 -37 -398 -57 -626 -129 -115 -37 -135 -37 -354 -6
-38 6 -156 11 -261 11 -185 0 -247 -6 -399 -42 -113 -26 -215 -94 -254 -169
-21 -41 -41 -189 -41 -308 0 -72 -30 -490 -36 -506 -2 -5 -13 -23 -24 -40 -41
-62 -124 -208 -149 -260 -66 -137 -115 -270 -136 -367 -9 -40 -21 -89 -27
-108 -6 -19 -12 -108 -15 -198 -6 -189 13 -168 -163 -176 -150 -7 -224 -24
-228 -52 -4 -31 16 -35 126 -24 53 6 138 13 189 17 l91 6 7 -49 c4 -27 11 -67
17 -88 10 -42 2 -56 -35 -56 -23 0 -174 -48 -209 -66 -14 -8 -34 -14 -45 -15
-35 -1 -108 -43 -111 -65 -5 -37 26 -35 161 12 73 25 148 49 167 53 19 5 48
14 63 22 24 11 30 11 38 -2 5 -8 9 -22 9 -32 0 -10 6 -30 14 -45 37 -74 38
-72 -102 -142 -70 -35 -129 -66 -132 -69 -3 -3 -20 -14 -38 -23 -116 -63 -122
-68 -122 -97 0 -31 34 -35 77 -8 21 13 59 36 86 50 l47 27 0 -31 c0 -16 7 -62
15 -102 39 -186 48 -226 62 -282 28 -111 83 -290 109 -357 8 -21 21 -57 30
-80 9 -24 20 -52 24 -63 14 -34 100 -219 110 -235 5 -8 24 -44 42 -80 18 -36
35 -67 38 -70 3 -3 20 -27 37 -55 45 -71 96 -144 111 -160 6 -7 12 -18 12 -24
0 -6 4 -11 8 -11 14 0 113 -130 107 -139 -3 -5 -20 -13 -38 -16 -50 -11 -208
-91 -242 -122 -32 -30 -55 -73 -55 -103 0 -53 111 -154 193 -174 18 -4 27 -13
27 -26 0 -31 99 -123 170 -159 121 -60 368 -132 560 -161 41 -6 111 -18 155
-26 44 -8 98 -14 120 -14 37 0 41 -3 59 -43 46 -104 58 -126 74 -131 50 -14
182 -27 592 -58 394 -30 911 -7 1095 49 95 29 114 41 131 80 33 76 52 114 55
112 4 -2 52 4 229 33 68 10 166 32 235 50 22 6 56 15 75 19 90 20 299 109 308
131 2 4 8 8 13 8 17 0 78 70 90 103 9 24 25 39 70 60 65 32 95 56 121 95 21
31 23 86 6 108 -38 47 -82 80 -156 116 -79 38 -100 46 -199 69 -24 6 -43 15
-43 20 0 5 4 9 9 9 5 0 11 8 15 18 7 20 45 85 55 92 3 3 24 30 45 61 l38 57
36 -10 c53 -15 285 -4 360 17 34 9 81 27 105 40 23 13 62 34 87 46 25 13 47
25 50 28 3 3 37 27 75 53 39 26 82 59 97 73 15 14 30 25 34 25 8 0 129 116
203 194 31 33 64 68 74 78 9 10 17 23 17 28 0 6 5 10 10 10 6 0 10 5 10 10 0
6 8 19 18 29 32 37 42 50 42 61 0 5 4 10 9 10 5 0 13 9 16 20 3 11 12 26 18
33 18 20 67 115 67 131 0 7 7 19 15 26 8 7 15 23 15 35 0 12 7 39 15 58 10 24
15 70 15 137 0 90 -3 106 -30 163 -37 78 -122 162 -205 203 -56 27 -69 29
-194 31 -101 2 -144 7 -170 19 -20 9 -81 38 -136 64 -55 26 -110 50 -122 54
-40 12 -43 26 -30 119 7 47 16 89 19 92 10 11 166 -33 281 -78 69 -28 79 -29
92 -16 9 9 13 22 10 30 -5 14 -106 66 -155 81 -14 4 -56 16 -95 27 -38 11 -82
21 -97 21 l-28 0 0 101 0 100 73 -6 c39 -4 108 -11 152 -16 124 -14 195 -12
202 7 3 8 -1 22 -8 29 -15 15 -148 32 -320 41 l-105 6 -13 121 c-18 178 -36
270 -91 472 -41 148 -137 403 -161 430 -5 5 -9 45 -9 90 0 44 -5 125 -10 180
-6 55 -15 185 -20 289 -12 243 -21 280 -77 345 -112 128 -391 187 -761 162
-92 -6 -188 -14 -214 -16 -30 -4 -68 1 -110 14 -156 48 -202 57 -415 86 -143
19 -581 19 -738 -1z m830 -78 c126 -22 235 -48 365 -90 56 -18 84 -29 187 -78
45 -21 87 -38 92 -38 6 0 11 -4 11 -10 0 -5 11 -12 25 -16 14 -3 25 -10 25
-14 0 -5 9 -12 20 -15 11 -3 26 -12 32 -18 7 -7 38 -28 68 -48 76 -50 240
-189 240 -204 0 -4 16 -21 36 -38 60 -53 274 -339 274 -367 0 -5 6 -15 13 -22
26 -28 136 -262 167 -358 10 -30 22 -66 28 -80 5 -14 18 -52 27 -85 10 -33 23
-78 30 -100 7 -22 18 -71 24 -110 7 -38 18 -99 26 -135 7 -36 16 -110 20 -166
l7 -101 -62 -7 c-45 -5 -73 -15 -102 -36 -52 -38 -36 -45 67 -31 114 16 105
22 105 -72 0 -46 -2 -86 -5 -88 -2 -3 -46 -1 -97 3 -114 10 -140 5 -136 -24 3
-19 15 -23 112 -40 60 -10 110 -19 111 -21 4 -4 -15 -160 -20 -165 -2 -2 -43
14 -90 37 -47 22 -92 41 -99 41 -20 0 -39 -27 -32 -45 5 -14 15 -19 66 -39 8
-3 22 -10 30 -15 8 -5 34 -18 57 -28 40 -17 42 -20 37 -48 -8 -42 -27 -68 -60
-85 -16 -8 -31 -18 -34 -21 -20 -23 -246 -136 -320 -160 -14 -4 -50 -17 -80
-29 -30 -12 -71 -26 -90 -31 -19 -6 -48 -14 -65 -18 -16 -5 -66 -19 -110 -31
-101 -28 -196 -50 -260 -60 -27 -4 -68 -12 -90 -18 -22 -5 -80 -15 -130 -21
-49 -7 -118 -16 -151 -21 -99 -16 -100 -16 -113 35 -21 82 -119 155 -211 155
-73 0 -180 -52 -180 -87 0 -6 -6 -13 -13 -16 -7 -3 -27 -34 -44 -70 -22 -44
-39 -66 -55 -71 -13 -3 -148 -9 -300 -13 l-277 -6 -6 29 c-15 65 -69 141 -127
177 -34 21 -132 22 -172 2 -15 -8 -33 -15 -39 -15 -24 0 -96 -72 -113 -115
l-19 -45 -60 0 c-208 -1 -760 51 -925 87 -72 15 -101 25 -180 60 -143 63 -229
126 -296 218 -16 22 -31 42 -35 45 -3 3 -8 12 -12 20 -4 8 -12 23 -19 32 -16
22 -12 24 53 47 63 23 81 43 58 66 -14 14 -21 14 -70 1 -30 -8 -61 -17 -70
-21 -14 -5 -21 6 -38 59 -12 36 -21 71 -21 78 0 9 29 20 80 32 78 17 80 19 80
47 0 27 -3 29 -38 29 -21 0 -62 -7 -91 -16 -29 -8 -54 -14 -55 -12 -1 2 -8 31
-15 66 -6 35 -15 70 -18 79 -6 14 1 15 58 9 35 -3 81 -9 102 -12 51 -8 47 9
-8 36 -25 12 -45 26 -45 31 0 5 -21 9 -47 9 -27 0 -54 4 -61 8 -15 10 -19 143
-8 257 8 74 34 195 55 255 5 14 17 51 26 82 9 32 21 60 26 64 5 3 9 11 9 19 0
12 54 131 80 175 4 8 16 31 25 50 18 39 28 56 68 117 15 24 27 47 27 53 0 5 5
10 10 10 6 0 10 6 10 14 0 8 3 16 8 18 4 2 39 50 77 107 76 115 218 277 310
356 32 28 66 58 77 68 10 9 55 44 101 77 45 33 87 65 94 70 7 6 14 10 17 10 2
0 28 16 58 35 29 19 62 38 73 41 11 4 22 10 25 14 5 6 202 103 245 120 58 22
165 62 215 79 92 32 368 93 520 116 145 21 184 23 525 20 227 -2 324 -6 400
-19z m1096 -91 c77 -14 101 -22 177 -57 l42 -19 0 -277 c0 -261 -1 -275 -17
-252 -42 63 -281 320 -298 320 -3 0 -13 8 -23 18 -10 9 -33 28 -52 42 -18 14
-39 31 -46 38 -7 6 -17 12 -23 12 -6 0 -11 4 -11 9 0 5 -13 14 -30 21 -16 7
-30 16 -30 20 0 4 -17 15 -37 24 -21 9 -51 25 -68 36 -35 22 -114 60 -126 60
-4 0 -11 5 -14 10 -10 17 465 13 556 -5z m-2978 -31 c156 -6 192 -15 142 -34
-39 -15 -186 -89 -220 -110 -16 -11 -39 -24 -50 -30 -26 -13 -52 -30 -92 -57
-17 -13 -36 -23 -41 -23 -6 0 -12 -3 -14 -7 -1 -5 -25 -24 -53 -43 -27 -19
-54 -39 -60 -45 -5 -6 -27 -24 -48 -39 -21 -15 -92 -82 -158 -147 l-119 -120
0 283 0 284 58 27 c31 15 63 27 70 27 7 0 34 7 60 15 48 15 270 34 332 29 19
-2 106 -6 193 -10z m3295 -341 c6 -103 14 -239 18 -302 3 -63 8 -120 11 -128
3 -7 1 -13 -4 -13 -5 0 -16 16 -23 35 -8 20 -20 41 -27 47 -10 8 -13 74 -13
297 1 234 3 283 13 269 9 -10 17 -85 25 -205z m-4068 -123 c0 -166 -4 -290 -9
-290 -5 0 -18 -15 -30 -32 l-21 -33 0 80 c0 76 26 463 36 533 3 17 9 32 14 32
6 0 10 -113 10 -290z m4535 -2155 c33 -15 74 -35 92 -43 l32 -16 -105 -51
c-57 -29 -112 -59 -122 -68 -10 -10 -23 -17 -29 -17 -6 0 -14 -6 -17 -12 -11
-26 7 88 20 126 8 21 14 47 14 57 0 10 4 29 10 44 8 20 13 24 27 16 10 -5 45
-21 78 -36z m-4875 -17 c0 -16 59 -107 97 -148 17 -19 43 -47 57 -62 14 -16
30 -28 36 -28 5 0 10 -4 10 -10 0 -5 -5 -10 -11 -10 -13 0 -134 46 -169 64
-88 47 -145 80 -148 87 -2 5 -10 9 -17 9 -18 0 -26 26 -12 38 26 21 127 69
150 71 4 1 7 -4 7 -11z m4675 -55 c-24 -149 -50 -218 -97 -264 -21 -20 -38
-42 -38 -48 0 -6 -4 -11 -8 -11 -27 0 -111 -196 -112 -263 0 -26 31 -90 51
-104 13 -10 15 -20 9 -45 -11 -45 -78 -246 -96 -285 -8 -17 -14 -34 -14 -38 0
-4 -6 -21 -14 -38 -7 -18 -18 -43 -23 -57 -6 -14 -28 -34 -49 -44 -112 -57
-168 -176 -115 -245 14 -19 16 -28 7 -47 -6 -13 -14 -24 -18 -24 -5 0 -8 -5
-8 -11 0 -6 -6 -17 -12 -24 -15 -16 -66 -90 -110 -160 -18 -27 -42 -60 -55
-72 -13 -12 -23 -27 -23 -33 0 -5 -7 -10 -15 -10 -8 0 -15 -4 -15 -9 0 -5 -17
-20 -37 -32 -21 -13 -39 -27 -41 -31 -2 -4 -8 -8 -12 -8 -5 0 -31 -13 -57 -28
-26 -16 -57 -31 -68 -34 -11 -4 -45 -15 -75 -26 -166 -59 -352 -100 -545 -122
-49 -5 -133 -15 -185 -21 -54 -7 -302 -14 -580 -17 -479 -4 -728 5 -1047 38
-50 6 -108 10 -127 10 -30 0 -180 61 -196 79 -3 3 -26 17 -53 30 -41 21 -125
77 -164 111 -7 5 -15 10 -19 10 -4 0 -17 11 -30 25 -13 14 -26 25 -30 25 -18
0 -212 211 -279 303 -41 56 -78 107 -83 112 -4 6 -11 17 -15 25 -8 18 -30 53
-37 60 -14 14 -120 222 -167 330 -9 19 -20 43 -24 52 -37 74 -143 418 -169
543 -7 33 -18 83 -25 110 -7 28 -16 79 -20 114 -8 70 -13 69 61 19 23 -15 44
-28 48 -28 3 0 29 -11 58 -24 79 -35 106 -46 173 -67 109 -35 149 -47 210 -59
33 -6 87 -18 120 -25 203 -46 770 -105 998 -105 l87 0 0 -29 c0 -35 23 -117
58 -201 17 -43 80 -107 125 -129 51 -25 116 -27 178 -6 45 15 109 65 109 84 0
5 5 11 11 13 22 7 39 105 29 166 -6 31 -10 63 -10 70 0 9 64 12 285 12 l285 0
0 -52 c0 -113 79 -206 206 -241 56 -16 64 -16 110 -1 55 19 134 78 142 106 2
10 8 18 12 18 14 0 40 105 40 162 l0 54 88 13 c48 7 119 17 159 21 40 5 76 11
82 14 5 3 35 10 68 15 204 29 403 81 673 176 92 32 270 117 328 156 24 16 46
29 50 29 4 0 19 11 32 24 14 14 26 25 28 25 2 1 0 -16 -3 -36z m649 -30 c63
-17 156 -68 156 -84 0 -5 7 -9 15 -9 8 0 15 -7 15 -15 0 -8 4 -15 10 -15 18 0
62 -115 67 -176 5 -59 -4 -109 -40 -209 -13 -39 -77 -168 -86 -175 -8 -7 -61
-88 -61 -95 0 -3 -8 -13 -17 -23 -10 -10 -34 -38 -53 -62 -39 -48 -217 -230
-225 -230 -3 0 -13 -8 -23 -17 -43 -41 -82 -73 -91 -73 -5 0 -11 -3 -13 -7 -4
-10 -85 -73 -93 -73 -4 0 -26 -13 -49 -28 -22 -15 -59 -36 -81 -45 -136 -61
-164 -67 -317 -67 -151 0 -218 15 -218 50 0 30 17 67 41 89 43 40 158 81 225
81 85 0 323 104 459 200 88 62 255 225 255 248 0 5 6 14 13 20 15 13 69 123
87 176 19 58 16 232 -4 279 -30 69 -97 92 -182 62 -64 -22 -214 -117 -214
-136 0 -5 -5 -9 -10 -9 -6 0 -64 -53 -130 -119 -104 -104 -126 -121 -174 -136
-77 -24 -91 -13 -83 71 9 95 48 165 148 267 48 48 92 87 98 87 6 0 11 4 11 9
0 5 8 11 18 15 20 6 50 25 70 44 7 6 18 12 24 12 6 0 19 6 27 13 9 8 32 19 51
26 19 7 44 17 55 22 37 18 170 47 214 48 25 1 72 -7 105 -16z m-2314 -218 c16
-8 42 -32 57 -52 27 -35 28 -40 28 -157 0 -103 -3 -126 -20 -155 -42 -72 -86
-101 -155 -101 -66 0 -122 29 -161 83 -30 40 -31 45 -27 127 5 101 30 163 95
228 40 39 46 42 98 42 31 0 69 -7 85 -15z m-1062 -68 c47 -44 82 -170 82 -295
0 -71 0 -73 -41 -111 -33 -33 -49 -41 -92 -46 -29 -3 -64 -2 -78 2 -97 30
-176 213 -155 358 10 61 50 99 130 124 55 17 65 17 96 4 19 -7 45 -24 58 -36z
m3258 27 c40 -11 58 -145 33 -239 -45 -173 -161 -310 -395 -473 -44 -30 -163
-90 -209 -104 -86 -26 -173 -48 -198 -48 -25 0 -27 3 -21 28 4 15 11 36 16 46
6 10 14 31 18 45 5 14 18 51 30 81 11 30 30 84 41 120 37 118 42 126 94 140
30 9 68 32 110 69 35 31 64 59 64 63 1 8 67 71 129 123 20 17 44 38 54 48 10
9 23 17 28 17 6 0 10 3 10 8 0 4 24 21 53 39 67 40 100 49 143 37z m-4606
-1574 c36 -30 67 -58 70 -61 12 -13 117 -89 124 -89 4 0 26 -13 49 -28 55 -38
201 -108 252 -121 22 -6 76 -13 120 -16 44 -3 152 -12 240 -20 88 -8 307 -19
487 -26 551 -19 1065 12 1403 86 33 7 85 18 115 25 91 19 229 69 335 121 98
47 152 86 225 162 21 21 47 37 59 37 29 0 191 -55 256 -87 57 -28 105 -75 105
-103 0 -40 -85 -100 -185 -130 -22 -7 -55 -19 -73 -26 -18 -8 -40 -14 -48 -14
-9 0 -37 -7 -63 -15 -78 -24 -301 -66 -441 -84 -545 -67 -944 -87 -1535 -77
-425 8 -631 22 -1080 76 -142 17 -158 20 -335 57 -130 26 -324 84 -385 114
-63 31 -105 74 -105 108 0 27 86 92 156 116 147 53 179 63 184 56 3 -3 34 -31
70 -61z m3595 -360 c-48 -53 -301 -149 -475 -179 -25 -5 -65 -13 -90 -19 -259
-61 -852 -112 -1305 -112 -374 0 -907 38 -1140 82 -33 6 -82 14 -110 18 -152
22 -452 104 -480 131 -5 5 -17 9 -26 9 -10 0 -24 6 -31 13 -7 6 -30 20 -51 29
-57 27 -49 50 9 27 16 -5 72 -19 126 -29 54 -11 117 -24 140 -29 113 -25 441
-67 678 -86 840 -67 1836 -31 2425 86 28 6 70 14 95 18 78 15 144 30 190 45
61 20 66 19 45 -4z m-952 -376 c-11 -24 -27 -41 -43 -46 -86 -24 -148 -37
-245 -51 -273 -40 -917 -25 -1329 29 -115 15 -125 20 -145 77 l-11 29 83 -6
c45 -3 156 -11 247 -18 334 -26 1062 -12 1360 26 52 7 96 9 98 5 2 -4 -5 -24
-15 -45z"/>
<path d="M5723 7312 c-34 -13 -43 -21 -43 -40 0 -22 3 -24 33 -17 114 24 178
11 197 -40 7 -18 17 -25 35 -25 31 0 33 22 5 67 -40 66 -138 90 -227 55z"/>
<path d="M3492 7226 c-47 -15 -114 -79 -106 -100 9 -24 31 -20 76 17 39 31 43
32 129 31 85 -2 89 -1 89 20 0 38 -112 57 -188 32z"/>
<path d="M5720 6454 c-65 -14 -185 -60 -206 -79 -7 -5 -32 -26 -58 -45 -25
-19 -45 -38 -46 -42 0 -4 -13 -22 -30 -40 -16 -18 -30 -38 -30 -44 0 -7 -5
-14 -10 -16 -17 -5 -61 -149 -67 -218 -8 -99 35 -244 97 -325 32 -41 118 -121
146 -135 16 -8 36 -19 44 -26 41 -31 177 -63 270 -63 152 0 297 59 402 163
108 109 148 205 148 360 0 105 -9 140 -63 251 l-24 50 27 13 c43 21 52 70 20
102 -21 21 -70 28 -70 10 0 -5 -6 -10 -14 -10 -9 0 -16 -12 -18 -30 l-3 -31
-34 32 c-53 48 -153 97 -245 119 -96 23 -145 24 -236 4z m204 -86 c19 -27 21
-78 3 -101 -6 -10 -29 -20 -49 -23 -31 -5 -41 -2 -63 21 -23 22 -26 32 -22 62
9 50 23 63 73 63 33 0 46 -5 58 -22z"/>
<path d="M3485 6370 c-96 -29 -175 -72 -234 -126 -14 -13 -29 -24 -33 -24 -5
0 -8 -4 -8 -9 0 -6 -12 -22 -26 -38 -84 -90 -126 -289 -90 -425 17 -67 63
-168 76 -168 6 0 10 -5 10 -11 0 -5 28 -37 63 -69 221 -209 580 -207 791 4
116 117 148 192 149 356 1 117 -7 156 -49 239 -25 51 -111 147 -166 186 -43
31 -132 75 -152 75 -6 0 -29 7 -51 15 -57 20 -205 18 -280 -5z m149 -61 c13
-7 30 -24 36 -40 33 -78 -65 -144 -125 -84 -33 32 -33 75 1 109 29 28 50 32
88 15z"/>
<path d="M4653 5770 c-39 -23 -45 -68 -14 -99 19 -19 19 -20 -2 -39 -32 -28
-86 -52 -118 -52 -26 0 -97 27 -109 41 -10 11 -40 18 -55 13 -35 -14 -5 -66
52 -89 l25 -10 2 -215 c2 -212 7 -257 43 -380 20 -68 64 -156 95 -192 13 -14
43 -40 67 -57 68 -48 113 -40 183 31 90 93 168 409 168 685 l0 142 30 18 c33
19 41 57 14 67 -8 3 -43 -8 -76 -24 -69 -34 -111 -38 -151 -11 -31 20 -64 61
-49 61 18 0 43 50 37 71 -8 24 -61 59 -90 59 -11 0 -35 -9 -52 -20z m71 -192
c39 -40 81 -58 139 -58 l56 0 7 -47 c9 -57 -11 -290 -32 -388 -14 -63 -36
-138 -68 -232 -6 -18 -14 -33 -18 -33 -5 0 -8 -6 -8 -13 0 -8 -11 -27 -25 -42
-37 -44 -82 -40 -132 11 -21 21 -46 51 -55 65 -66 104 -104 398 -82 618 l7 61
39 0 c44 0 93 23 121 58 10 12 21 22 24 22 3 0 15 -10 27 -22z"/>
<path d="M6529 5609 c-67 -82 -81 -106 -74 -128 4 -15 15 -21 36 -21 24 0 36
9 61 45 18 25 35 45 40 45 4 0 8 5 8 11 0 6 7 17 15 26 14 13 14 18 2 37 -24
35 -50 31 -88 -15z"/>
<path d="M6665 5569 c-49 -84 -46 -129 11 -129 7 0 22 15 31 34 10 19 29 55
42 80 20 37 22 48 11 61 -27 33 -57 18 -95 -46z"/>
<path d="M2812 5514 c-12 -8 -22 -19 -22 -24 0 -7 77 -107 107 -137 19 -21 61
-16 68 8 7 22 -25 76 -81 136 -36 38 -41 39 -72 17z"/>
<path d="M2677 5504 c-15 -8 -27 -19 -27 -24 0 -22 71 -145 87 -151 58 -20 68
25 26 112 -35 70 -50 81 -86 63z"/>
<path d="M1450 7553 c-46 -7 -89 -33 -123 -76 -94 -117 -71 -239 65 -344 72
-55 199 -74 256 -38 45 29 83 68 103 107 37 72 18 195 -35 228 -16 10 -22 9
-32 -6 -8 -11 -18 -24 -24 -31 -14 -17 -12 -39 5 -53 9 -8 15 -29 15 -56 0
-34 -6 -49 -29 -73 -16 -17 -41 -33 -56 -37 -30 -8 -110 13 -126 32 -6 8 -16
14 -21 14 -16 0 -68 63 -79 98 -23 70 42 152 110 139 24 -5 31 0 54 36 15 22
24 44 19 48 -10 9 -72 16 -102 12z"/>
<path d="M957 6767 c-3 -12 -11 -36 -18 -54 l-13 -32 83 -78 83 -78 -33 -7
c-19 -4 -71 -10 -116 -14 l-83 -7 -11 -41 c-6 -22 -16 -47 -21 -53 -13 -16 19
-17 89 -4 247 48 238 48 335 11 32 -12 65 -20 74 -18 10 2 22 21 29 44 l12 42
-46 15 c-112 39 -123 45 -186 113 -36 38 -65 70 -65 71 0 1 -18 20 -40 43 -22
23 -40 45 -40 50 0 20 -28 17 -33 -3z"/>
<path d="M8490 6640 c-150 -36 -220 -108 -220 -225 0 -102 45 -175 130 -209
41 -16 110 -22 110 -8 0 4 -7 25 -14 47 -12 35 -19 41 -57 50 -32 8 -50 20
-66 44 -55 81 -7 158 122 198 83 26 150 7 178 -52 25 -53 22 -87 -13 -120 -28
-26 -28 -29 -15 -56 8 -15 15 -35 15 -44 0 -36 42 -11 83 50 23 33 27 50 27
107 0 82 -24 133 -84 183 -34 27 -52 34 -101 39 -33 2 -76 1 -95 -4z"/>
<path d="M761 5833 c-47 -19 -77 -92 -85 -208 -3 -44 -9 -97 -12 -117 l-7 -38
39 0 c22 0 93 -7 159 -15 281 -36 279 -35 287 -22 4 6 8 33 8 59 0 26 5 81 11
123 14 93 3 139 -43 184 -29 28 -38 31 -92 31 -55 -1 -63 -4 -85 -30 l-24 -29
-11 22 c-20 38 -96 59 -145 40z m102 -113 c15 -25 16 -38 7 -92 -5 -35 -10
-66 -10 -70 0 -9 -36 -10 -76 -2 l-29 6 6 71 c3 40 12 82 20 95 20 33 60 29
82 -8z m175 14 c41 -11 52 -51 40 -135 -6 -41 -11 -75 -12 -76 -6 -7 -126 21
-126 29 0 42 26 156 39 170 18 19 26 20 59 12z"/>
<path d="M8440 5701 c0 -51 8 -71 30 -71 9 0 31 -5 47 -11 29 -10 31 -13 40
-92 10 -76 9 -83 -9 -99 -11 -10 -28 -18 -37 -18 -26 0 -41 -21 -41 -56 0 -64
19 -72 86 -36 10 6 39 20 64 30 25 11 77 35 115 52 99 45 125 57 168 74 l37
15 0 60 c0 34 -3 61 -7 61 -5 0 -39 10 -78 21 -38 11 -86 24 -105 28 -19 5
-71 18 -115 31 -106 29 -185 50 -190 50 -3 0 -5 -18 -5 -39z"/>
<path d="M1090 4955 c-14 -8 -34 -14 -45 -15 -12 0 -26 -5 -32 -11 -6 -6 -26
-14 -44 -19 -57 -15 -201 -64 -279 -97 l-41 -16 3 -56 3 -56 45 -16 c25 -9 52
-19 60 -22 8 -4 42 -15 75 -26 33 -11 85 -29 115 -41 102 -39 164 -60 177 -60
9 0 13 16 13 50 0 48 -1 49 -37 60 -64 17 -64 18 -61 115 l3 89 47 16 48 15 0
53 c0 56 -7 62 -50 37z"/>
<path d="M8470 4780 l0 -50 105 0 105 0 0 -105 0 -105 40 0 40 0 0 105 0 105
45 0 c25 0 48 1 53 3 4 1 9 -52 12 -118 l5 -120 43 -3 42 -3 0 170 0 171 -245
0 -245 0 0 -50z"/>
<path d="M937 4056 c-15 -7 -34 -22 -43 -34 l-15 -22 -25 25 c-32 32 -92 34
-139 5 -52 -32 -65 -79 -65 -234 l0 -134 246 -1 246 0 -4 157 c-4 181 -12 201
-86 233 -50 22 -75 23 -115 5z m94 -105 c22 -17 24 -27 24 -103 l0 -83 -62 -1
-63 -2 0 86 c0 65 4 90 17 104 21 23 55 23 84 -1z m-217 -2 c30 -14 36 -34 36
-121 l0 -67 -55 1 -55 1 0 80 c0 61 4 85 17 99 19 21 24 22 57 7z"/>
<path d="M8470 3840 l0 -180 43 0 42 0 0 132 0 133 68 3 67 3 0 -121 0 -120
40 0 40 0 0 120 0 120 50 0 50 0 0 -130 0 -130 45 0 45 0 0 175 0 175 -245 0
-245 0 0 -180z"/>
<path d="M883 3332 c-34 -11 -87 -63 -107 -106 -50 -106 29 -238 155 -261 48
-9 121 23 165 72 36 40 50 99 39 164 -8 49 -79 123 -126 133 -38 7 -96 6 -126
-2z"/>
<path d="M8685 3333 c-31 -8 -94 -73 -106 -111 -23 -69 -4 -162 42 -205 27
-25 99 -57 129 -57 43 0 126 45 156 86 26 34 29 45 29 112 0 51 -4 77 -12 80
-7 2 -13 10 -13 17 0 7 -18 28 -40 45 -34 27 -51 33 -103 36 -34 1 -71 0 -82
-3z"/>
<path d="M2356 1805 c-8 -8 -19 -15 -25 -15 -28 0 -21 -127 8 -145 26 -16 9
-34 -36 -40 -61 -7 -192 -32 -265 -51 -72 -18 -108 -18 -108 -1 0 21 -61 49
-99 45 -42 -4 -75 -44 -74 -91 0 -17 5 -75 11 -127 6 -52 16 -135 21 -184 6
-48 13 -91 16 -94 5 -5 86 12 123 25 8 4 12 -5 12 -26 l0 -31 83 0 c45 0 132
7 192 15 61 8 127 15 148 15 l37 0 0 -84 0 -83 -184 -5 c-102 -3 -189 -9 -195
-13 -7 -3 -11 -42 -11 -94 l0 -88 185 5 185 5 0 -142 0 -141 -252 0 c-139 0
-263 -3 -275 -6 -22 -6 -23 -11 -23 -100 l0 -94 138 0 c244 0 1156 20 1193 25
39 7 69 44 69 88 0 34 -53 87 -88 88 -15 1 -38 4 -51 8 -21 6 -19 9 33 45 l55
38 -41 56 c-80 109 -112 131 -167 112 -78 -26 -80 -116 -4 -195 49 -52 48 -52
-168 -60 -110 -4 -203 -5 -206 -2 -3 4 -2 67 2 141 l7 135 188 3 c173 3 191 5
217 24 22 17 29 30 31 67 3 41 0 47 -31 71 -34 26 -36 26 -212 26 l-178 0 7
61 c3 34 6 75 6 90 l0 29 123 0 c174 1 390 23 421 44 44 28 96 175 96 268 0
52 -5 70 -27 103 -68 102 -178 131 -456 123 -87 -3 -157 -2 -157 1 0 13 -110
121 -148 145 -47 29 -103 34 -126 11z m607 -344 c31 -5 58 -17 75 -34 25 -25
25 -27 13 -81 -7 -31 -15 -56 -19 -56 -4 0 -23 4 -43 9 -35 8 -697 -10 -911
-25 l-98 -7 -1 32 c-1 17 -2 36 -3 43 -1 17 141 53 299 77 39 6 106 16 150 22
147 23 454 34 538 20z"/>
<path d="M7138 1810 c-33 -10 -88 -42 -88 -52 0 -4 -15 -22 -32 -41 l-33 -34
-150 -12 c-82 -6 -187 -17 -232 -23 l-83 -11 0 -92 0 -93 113 5 c61 2 133 8
160 12 26 5 47 7 47 5 0 -6 -45 -79 -97 -157 -29 -44 -53 -84 -53 -90 0 -5 11
-20 25 -33 14 -13 25 -25 25 -28 0 -2 -33 -7 -72 -10 -40 -4 -94 -9 -120 -12
l-48 -6 0 -89 0 -89 103 0 c56 0 152 6 212 14 171 23 390 38 625 45 l216 6 16
-55 c47 -158 63 -307 48 -422 -6 -45 -16 -85 -21 -86 -5 -2 -9 -9 -9 -17 0 -7
-20 -18 -45 -25 -54 -15 -106 -4 -167 36 l-38 24 0 -34 c0 -18 -7 -53 -15 -76
-24 -67 -21 -76 38 -103 87 -41 173 -53 258 -37 62 12 78 19 113 54 23 23 48
55 57 71 55 102 57 386 3 596 -8 30 -14 60 -14 66 0 6 21 14 48 18 62 9 92 37
92 86 0 29 -7 43 -31 63 -28 24 -38 26 -125 26 -74 0 -94 3 -94 14 0 8 4 16 9
18 5 2 21 25 34 52 l25 50 -21 16 c-22 16 -87 51 -227 121 l-75 38 164 1 c188
0 218 7 244 57 16 31 16 37 2 66 -10 22 -29 39 -58 51 -39 17 -61 18 -296 12
-139 -4 -267 -10 -282 -13 -26 -5 -29 -3 -29 21 0 39 -24 80 -55 94 -29 13
-30 13 -67 2z m259 -314 c-23 -18 -23 -86 1 -112 22 -26 63 -53 137 -94 33
-18 62 -36 65 -39 3 -4 19 -13 35 -21 28 -14 22 -15 -100 -17 -71 -2 -237 -10
-368 -19 -132 -8 -241 -13 -244 -10 -3 3 4 18 16 34 12 17 21 33 21 36 0 3 8
15 18 25 26 30 39 46 43 57 2 6 29 45 59 86 l54 76 136 8 c74 5 137 8 140 6 3
-2 -3 -9 -13 -16z"/>
<path d="M4950 1775 c-63 -7 -135 -20 -159 -27 -57 -19 -117 -70 -136 -115
-29 -69 -12 -177 36 -223 44 -43 162 -90 225 -90 64 0 94 -11 94 -35 0 -21 -5
-22 -177 -33 -98 -7 -197 -12 -220 -12 l-43 0 0 -86 0 -87 79 7 79 6 -69 -70
c-38 -39 -69 -75 -69 -80 0 -5 14 -19 31 -31 17 -12 42 -32 56 -45 30 -28 25
-31 128 71 74 74 99 116 90 145 -6 20 4 25 62 29 l42 2 -6 -130 -6 -131 91 0
92 0 0 48 c0 26 3 84 7 130 l6 82 194 0 c167 0 199 2 224 17 27 16 30 22 27
63 -3 38 -8 48 -37 67 -32 22 -43 23 -217 23 -173 0 -184 1 -184 19 0 16 11
20 83 26 95 8 169 35 231 85 57 45 75 109 56 189 -26 110 -128 169 -332 191
-114 12 -127 12 -278 -5z m365 -165 c94 -43 86 -94 -20 -131 -52 -18 -333 -18
-398 0 -34 10 -49 21 -63 46 -15 29 -16 36 -4 50 35 42 105 54 295 51 110 -1
169 -7 190 -16z"/>
<path d="M4425 1744 c-38 -14 -81 -28 -95 -31 -14 -3 -30 -9 -35 -14 -6 -4
-33 -15 -60 -24 -28 -9 -63 -22 -80 -30 -16 -7 -41 -16 -53 -20 -19 -6 -23
-12 -19 -33 3 -15 10 -56 17 -92 6 -35 13 -67 16 -69 2 -3 20 3 39 12 60 29
73 24 80 -30 3 -27 12 -88 20 -138 8 -49 19 -128 25 -175 6 -47 18 -121 26
-165 8 -44 14 -95 14 -112 0 -38 -2 -37 70 -18 30 8 70 15 89 15 33 0 33 1 27
33 -4 17 -9 55 -12 82 -5 55 -27 212 -49 350 -8 50 -17 117 -20 150 -3 32 -8
68 -11 80 -4 16 3 23 38 37 24 9 53 19 65 23 37 10 83 65 83 99 -1 38 -15 58
-57 79 -39 20 -32 21 -118 -9z"/>
<path d="M5285 1044 c-22 -21 -26 -31 -21 -56 9 -46 23 -58 141 -118 120 -62
101 -66 158 34 33 58 33 58 -58 101 -161 75 -178 78 -220 39z"/>
<path d="M6835 885 c-27 -8 -64 -15 -81 -15 -85 0 -139 -79 -156 -225 -17
-148 10 -234 90 -288 61 -41 131 -57 274 -64 102 -4 140 -2 200 12 127 31 205
84 248 169 26 52 30 69 29 140 0 131 -42 203 -146 256 -45 24 -58 25 -228 27
-130 1 -194 -2 -230 -12z m311 -174 c72 -10 99 -38 98 -101 -1 -54 -23 -84
-77 -108 -39 -17 -188 -26 -271 -18 -89 10 -121 36 -121 98 1 72 11 92 52 107
74 27 216 37 319 22z"/>
<path d="M4838 883 c-21 -5 -72 -107 -64 -128 4 -12 -6 -15 -62 -15 -37 0
-121 -5 -187 -10 -66 -6 -162 -13 -212 -16 l-93 -7 0 -85 0 -85 203 6 c111 4
235 10 275 13 l72 7 0 -62 c0 -57 -2 -61 -22 -61 -95 -1 -542 -23 -578 -28
l-45 -7 -3 -84 -3 -84 168 6 c92 3 292 11 443 17 151 6 412 14 580 18 297 7
306 8 328 30 14 14 22 34 22 56 0 29 -7 40 -37 63 l-37 28 -312 -2 -312 -3 2
38 c6 89 -26 79 259 84 304 5 327 12 327 97 0 17 -10 37 -26 52 -26 24 -26 24
-289 27 l-263 3 -5 47 c-8 72 -57 104 -129 85z"/>
</g>
</svg>
